<?xml version="1.0" encoding="UTF-8" standalone="no"?>
<svg
   xmlns:dc="http://purl.org/dc/elements/1.1/"
   xmlns:cc="http://creativecommons.org/ns#"
   xmlns:rdf="http://www.w3.org/1999/02/22-rdf-syntax-ns#"
   xmlns:svg="http://www.w3.org/2000/svg"
   xmlns="http://www.w3.org/2000/svg"
   height="120"
   width="120"
   version="1.1"
   id="svg2"
   viewBox="0 0 120 120">
  <metadata
     id="metadata10">
    <rdf:RDF>
      <cc:Work
         rdf:about="">
        <dc:format>image/svg+xml</dc:format>
        <dc:type
           rdf:resource="http://purl.org/dc/dcmitype/StillImage" />
        <dc:title></dc:title>
      </cc:Work>
    </rdf:RDF>
  </metadata>
  <defs
     id="defs8" />
  <rect
     ry="5.7838988"
     y="-7.6293945e-06"
     x="-3.8587891e-06"
     height="120.00001"
     width="120.00001"
     id="rect4175"
     style="opacity:1;fill:#ff7f2a;fill-opacity:1;fill-rule:nonzero;stroke:none;stroke-width:1.5;stroke-miterlimit:4;stroke-dasharray:none;stroke-opacity:0.47311826" />
  <path
     style="fill:#4d4d4d"
     id="path4"
     d="M 55.892645,114.83825 C 25.647887,67.819564 20.033897,62.994018 20.033897,45.713941 c 0,-23.669942 17.893365,-42.8580884 39.966099,-42.8580884 22.072733,0 39.966098,19.1881464 39.966098,42.8580884 0,17.280077 -5.61399,22.105623 -35.858748,69.124309 -1.984778,3.07462 -6.230137,3.07441 -8.214701,0 z" />
  <g
     id="text4154"
     style="font-style:normal;font-weight:normal;font-size:47.31720352px;line-height:125%;font-family:sans-serif;letter-spacing:0px;word-spacing:0px;fill:#f9f9f9;fill-opacity:1;stroke:none;stroke-width:1px;stroke-linecap:butt;stroke-linejoin:miter;stroke-opacity:1"
     transform="scale(0.99976936,1.0002307)">
    <path
       id="path4564"
       style="font-size:106.46372223px;fill:#f9f9f9"
       d="m 10.791215,20.916629 41.223502,0 0,8.837321 -31.606417,0 0,19.026231 q 2.287306,-0.779763 4.574613,-1.143653 2.287306,-0.415874 4.574613,-0.415874 12.99606,0 20.585759,7.121841 7.589699,7.121841 7.589699,19.286153 0,12.528202 -7.797636,19.49409 -7.797636,6.913902 -21.989334,6.913902 -4.886518,0 -9.980974,-0.831746 Q 12.922569,98.373146 7.5162084,96.70965 l 0,-10.5528 q 4.6785816,2.547227 9.6690686,3.794849 4.990487,1.247622 10.5528,1.247622 8.993274,0 14.243682,-4.730566 5.250408,-4.730566 5.250408,-12.840107 0,-8.109541 -5.250408,-12.840107 -5.250408,-4.730566 -14.243682,-4.730566 -4.210723,0 -8.421446,0.935716 -4.158739,0.935717 -8.525416,2.911118 l 0,-38.98818 z" />
  </g>
  <g
     id="text4245"
     style="font-style:normal;font-weight:normal;font-size:44.48132706px;line-height:125%;font-family:sans-serif;letter-spacing:0px;word-spacing:0px;fill:#f9f9f9;fill-opacity:1;stroke:none;stroke-width:1px;stroke-linecap:butt;stroke-linejoin:miter;stroke-opacity:1"
     transform="matrix(0.93984987,0,0,1.0904244,4.0000114,3.5797446)">
    <path
       id="path4250"
       style="font-size:100.08300018px;fill:#f9f9f9"
       d="m 61.382089,15.903627 9.871468,0 0,30.836119 32.741993,-30.836119 12.70585,0 -36.211668,34.012582 38.801708,38.948316 -12.99906,0 -35.038823,-35.136561 0,35.136561 -9.871468,0 0,-72.960898 z" />
  </g>
</svg>
